<svg width="42" height="42" viewBox="0 0 42 42" fill="none" xmlns="http://www.w3.org/2000/svg">
<path d="M38.0071 10.8762C36.7823 11.4046 35.4495 11.7848 34.0766 11.9329C35.502 11.0861 36.5694 9.74828 37.0785 8.17046C35.741 8.96613 34.2757 9.52407 32.7477 9.81953C32.1091 9.13679 31.3367 8.59289 30.4787 8.22172C29.6206 7.85055 28.6954 7.66006 27.7605 7.66213C23.978 7.66213 20.9361 10.7281 20.9361 14.4906C20.9361 15.0189 21.0001 15.5472 21.1042 16.0556C15.4405 15.7594 10.3892 13.0536 7.03105 8.91094C6.41915 9.95608 6.0985 11.1461 6.10245 12.3572C6.10245 14.7267 7.30723 16.8161 9.14442 18.0449C8.06174 18.0022 7.0044 17.7046 6.05842 17.1763V17.2604C6.05842 20.5785 8.40394 23.3283 11.53 23.9607C10.943 24.1132 10.3392 24.1912 9.7328 24.1929C9.28851 24.1929 8.86824 24.1488 8.44397 24.0888C9.30853 26.7945 11.8262 28.7598 14.8241 28.8239C12.4786 30.6611 9.54068 31.7418 6.35061 31.7418C5.77824 31.7418 5.24989 31.7217 4.70154 31.6577C7.7275 33.599 11.3178 34.7197 15.1843 34.7197C27.7365 34.7197 34.6049 24.3209 34.6049 15.2951C34.6049 14.9989 34.6049 14.7027 34.5849 14.4065C35.9138 13.4339 37.0785 12.2291 38.0071 10.8762Z" fill="#EF2779"/>
</svg>
