<svg width="109" height="28" viewBox="0 0 109 28" fill="none" xmlns="http://www.w3.org/2000/svg">
<path d="M25.0273 9.72062C26.21 9.72062 27.3447 8.73596 27.5421 7.52119C27.7754 6.33879 26.9737 5.35414 25.7918 5.35414C24.6096 5.35414 23.4747 6.33879 23.2743 7.52119C23.0437 8.73596 23.8125 9.72062 25.0273 9.72062ZM105.289 13.2351H107.934C108.297 13.2351 108.509 13.0878 108.591 12.7495C108.718 12.2255 108.848 11.7024 108.982 11.1801C109.06 10.8756 108.883 10.6448 108.545 10.6448H105.934C106.122 9.89655 106.855 7.46736 106.855 5.88367C106.855 2.72087 104.169 0.0306111 100.358 0.0306111C96.0544 0.0306111 93.2546 2.91879 93.2546 6.98286C93.2546 8.16825 93.6969 9.54997 94.245 10.4071C94.0091 10.3936 93.7729 10.3869 93.5366 10.387C90.2665 10.387 88.2067 12.1609 88.2067 14.7421C88.2067 17.1646 90.1164 18.106 91.9144 18.7324C93.5114 19.2891 94.9822 19.548 94.9822 20.7957C94.9822 21.637 94.1729 22.1306 92.5892 22.1306C90.7102 22.1306 89.6775 21.2457 89.415 20.9101C89.593 20.7702 89.8578 20.4372 89.8578 19.8823C89.8578 19.1061 89.3126 18.4726 88.3 18.4726C87.4432 18.4726 86.7189 19.1714 86.537 20.0906C85.1609 21.2163 83.659 21.9459 81.5289 21.9459C79.4315 21.9459 78.3429 20.855 78.3429 18.5336C78.8346 18.6834 80.115 18.8632 80.9612 18.8632C84.5126 18.8632 86.933 17.2496 86.933 14.0181C86.933 12.2805 85.4076 10.4556 82.3897 10.4556H82.3829C78.4136 10.4556 76.1903 12.97 75.2195 15.7355C74.9475 15.67 74.6751 15.6064 74.4021 15.5448C74.6192 14.9314 74.7751 14.2205 74.7751 13.4323C74.7751 12.0664 73.9293 10.4556 71.6658 10.4556C70.0891 10.4556 68.5936 11.4883 67.557 13.0361C67.8149 12.0265 67.9859 11.3541 67.997 11.3091C68.0646 11.045 67.9546 10.7508 67.5428 10.7508H65.2197C64.8886 10.7508 64.655 10.8678 64.5608 11.2448C64.4977 11.4962 63.6995 14.6281 62.9224 17.6776C62.433 19.579 59.9011 21.9459 56.7188 21.9459C54.621 21.9459 53.5333 20.7832 53.5333 18.461C54.0822 18.6795 55.3052 18.863 56.151 18.863C59.8469 18.863 62.1229 17.2494 62.1229 14.018C62.1229 12.2803 60.5976 10.4555 57.5794 10.4555H57.5729C53.1033 10.4555 50.3654 13.927 49.9014 17.8632C49.7085 19.4995 48.3274 21.7464 46.8303 21.7464C46.1009 21.7464 45.6942 21.2883 45.6942 20.5105C45.6942 19.8388 46.1671 18.1964 46.6853 16.1381C46.859 15.4495 47.1225 14.399 47.4147 13.2351H49.8446C50.2063 13.2351 50.4185 13.0878 50.5006 12.7495C50.6169 12.2624 50.8303 11.4125 50.8909 11.1801C50.9691 10.8756 50.7929 10.6448 50.4542 10.6448H48.0648C48.0648 10.6448 49.1648 6.25541 49.1911 6.14264C49.297 5.69631 48.9235 5.43876 48.5327 5.52091C48.5327 5.52091 46.6859 5.88244 46.3433 5.95387C45.9991 6.02353 45.7318 6.21266 45.6074 6.70894L44.6293 10.6448H42.7106C42.3489 10.6448 42.1362 10.7924 42.0551 11.13C41.9277 11.6539 41.7976 12.1771 41.6649 12.6998C41.5856 13.0043 41.7628 13.2351 42.1011 13.2351H43.9826C43.9692 13.2889 43.303 15.8233 42.7641 18.0929C42.5104 19.1844 41.6609 21.7383 40.2697 21.7383C39.4386 21.7383 39.0874 21.3191 39.0874 20.4199C39.0874 19.0039 40.4813 15.4592 40.4813 13.8507C40.4813 11.7021 39.3286 10.4572 36.9672 10.4572C35.4787 10.4572 33.9353 11.4183 33.2812 12.2619C33.2812 12.2619 33.4796 11.5714 33.5475 11.3059C33.62 11.0255 33.4696 10.75 33.1014 10.75H30.7925C30.3012 10.75 30.1653 11.0126 30.0932 11.3015C30.0644 11.4174 29.2324 14.6844 28.4337 17.8206C27.8875 19.9681 26.5601 21.7626 25.1409 21.7626C24.4112 21.7626 24.0862 21.3047 24.0862 20.5269C24.0862 19.8548 24.5204 18.1966 25.0385 16.1384C25.6689 13.6327 26.225 11.5693 26.2844 11.3282C26.362 11.0193 26.2239 10.7501 25.8258 10.7501H23.503C23.0822 10.7501 22.932 10.9709 22.8433 11.2777C22.8433 11.2777 22.1896 13.7525 21.4973 16.5075C20.9945 18.5069 20.4393 20.5434 20.4393 21.5003C20.4393 23.2078 21.206 24.4949 23.3137 24.4949C24.9405 24.4949 26.2279 23.67 27.211 22.6188C27.0666 23.1878 26.9744 23.5479 26.9651 23.5847C26.8803 23.9099 26.983 24.1974 27.3662 24.1974H29.7431C30.1569 24.1974 30.3159 24.031 30.4023 23.6702C30.4855 23.3259 32.2608 16.3432 32.2608 16.3432C32.73 14.4675 33.8906 13.2254 35.5234 13.2254C36.2976 13.2254 36.9677 13.7381 36.8901 14.7343C36.8039 15.8304 35.4822 19.7678 35.4822 21.4959C35.4822 22.8039 35.9672 24.4961 38.4295 24.4961C40.1078 24.4961 41.3433 23.6914 42.2418 22.653C42.5708 23.7551 43.4423 24.4961 45.041 24.4961C47.6978 24.4961 49.2992 22.9204 50.2401 21.3376C51.0209 23.1765 52.8494 24.4952 55.5309 24.4952C58.2639 24.4952 60.3789 23.3431 61.8778 21.7768L61.4104 23.6103C61.3254 23.9406 61.4691 24.2002 61.8569 24.2002H64.2093C64.5315 24.2002 64.7607 24.0364 64.8443 23.6981C64.8856 23.5321 65.2255 22.2184 65.7056 20.3518C66.6237 16.78 68.0994 13.0743 70.3168 13.0743C71.0988 13.0743 71.4195 13.5115 71.4195 14.2002C71.4195 14.525 71.3252 14.8056 71.2437 14.956C70.169 14.7424 69.3043 15.273 69.3043 16.4206C69.3043 17.1683 70.0911 17.8479 71.153 17.8479C71.9643 17.8479 72.6351 17.6489 73.1701 17.2888C73.6967 17.3974 74.2221 17.5116 74.7463 17.6315C74.6656 18.1494 74.6244 18.6727 74.6229 19.1969C74.6229 22.0638 76.67 24.4951 80.3393 24.4951C83.2146 24.4951 85.1878 23.4432 86.8912 22.0947C87.7099 23.4344 89.7772 24.5171 92.4895 24.5171C96.2068 24.5171 98.3151 22.5842 98.3151 20.0292C98.3151 17.7166 96.4167 16.8655 94.459 16.1569C92.8675 15.582 91.5402 15.2693 91.5402 14.1446C91.5402 13.2228 92.2659 12.8011 93.5097 12.8011C94.3166 12.8011 94.9225 12.9749 95.2461 13.0657C95.5669 13.8688 96.2309 14.7581 97.3644 14.7581C98.3235 14.7581 98.7542 13.9995 98.7542 13.3009C98.7542 11.3122 95.4415 11.1038 95.4415 6.83878C95.4415 4.18669 96.9422 1.99887 100.05 1.99887C102.21 1.99887 103.62 3.36828 103.62 5.57844C103.62 7.40068 102.515 10.6446 102.515 10.6446H100.636C100.275 10.6446 100.062 10.7922 99.9804 11.1298C99.8533 11.6538 99.723 12.1771 99.5895 12.6996C99.5105 13.0041 99.6877 13.2349 100.026 13.2349H101.86C101.86 13.2349 99.9642 20.228 99.9642 21.4998C99.9642 23.2073 100.927 24.494 103.035 24.494C106.018 24.494 107.881 22.5558 108.692 19.7375C108.755 19.5195 108.631 19.342 108.41 19.342H107.273C107.045 19.342 106.914 19.4715 106.856 19.6935C106.599 20.694 105.962 21.7466 104.708 21.7466C103.978 21.7466 103.572 21.2885 103.572 20.5109C103.572 19.839 104.017 18.2661 104.564 16.1384C104.825 15.1252 105.289 13.2351 105.289 13.2351ZM81.7719 13.1156C82.8265 13.1156 83.3276 13.8172 83.3276 14.6534C83.3276 16.0677 82.2307 16.9301 80.5151 16.9301C79.9011 16.9301 79.0427 16.7846 78.5359 16.6157C78.7489 15.3151 79.6903 13.1156 81.7719 13.1156ZM56.9619 13.1156C58.1163 13.1156 58.5171 13.8172 58.5171 14.6534C58.5171 16.0677 57.4207 16.9301 55.7052 16.9301C55.0911 16.9301 54.2327 16.7846 53.7261 16.6157C53.9379 15.3151 54.7727 13.1156 56.9619 13.1156ZM11.3203 0C3.79455 0 0 5.39565 0 9.89514C0 12.6195 1.03145 15.0433 3.24373 15.9463C3.60649 16.0948 3.93142 15.9514 4.03662 15.5498C4.10981 15.2718 4.28292 14.5707 4.36015 14.2785C4.46641 13.8813 4.42507 13.7419 4.13233 13.3957C3.49442 12.6433 3.0868 11.6692 3.0868 10.2894C3.0868 6.28637 6.08177 2.70275 10.8856 2.70275C15.1395 2.70275 17.4763 5.30189 17.4763 8.77308C17.4763 13.3403 15.4553 17.195 12.4545 17.195C10.7975 17.195 9.55701 15.8246 9.9546 14.1438C10.4307 12.1371 11.3529 9.97149 11.3529 8.52309C11.3529 7.22652 10.6569 6.1451 9.21659 6.1451C7.5226 6.1451 6.16181 7.8975 6.16181 10.2451C6.16181 11.7403 6.66707 12.7515 6.66707 12.7515C6.66707 12.7515 4.9335 20.0966 4.62967 21.3829C4.02449 23.9448 4.53854 27.0852 4.582 27.4024C4.60768 27.5903 4.84923 27.635 4.95865 27.4932C5.11488 27.2893 7.13222 24.7985 7.81833 22.3095C8.01238 21.6048 8.93247 17.9557 8.93247 17.9557C9.48277 19.0055 11.0913 19.9301 12.8018 19.9301C17.8936 19.9301 21.3485 15.288 21.3485 9.07427C21.3485 4.37581 17.3688 0 11.3203 0Z" fill="#67748E" fill-opacity="0.7"/>
</svg>
