<svg width="92" height="26" viewBox="0 0 92 26" fill="none" xmlns="http://www.w3.org/2000/svg">
<path d="M48.951 25.0073H61.5751C63.4615 25.0073 65.0095 24.2333 66.2669 22.6848C67.4761 21.1855 68.105 19.396 68.105 17.3651C68.105 13.2536 62.833 10.3513 60.8006 10.3513H53.8842C53.3521 10.3513 52.9159 10.1093 52.5781 9.72283C52.2393 9.28714 52.046 8.80375 52.046 8.223C52.046 7.54586 52.2393 6.9656 52.5781 6.48172C52.9651 5.99833 53.4485 5.7082 54.0293 5.7082H66.9922V0.53207H53.7868C51.4166 0.53207 49.578 1.25789 48.2719 2.66035C47.1118 3.96643 46.5306 5.70771 46.5306 7.7878C46.5306 9.81921 47.1118 11.6092 48.2719 13.0593C49.578 14.6555 51.1265 15.4787 53.0128 15.4787H60.9944C61.4773 15.4787 61.8648 15.6238 62.1544 16.0098C62.4932 16.3968 62.6383 16.8807 62.6383 17.4133C62.6383 18.0422 62.3963 18.6225 62.0093 19.1063C61.5741 19.5415 61.0903 19.7835 60.4623 19.7835H47.6926L47.4993 19.4447L42.7107 4.06331L42.4688 3.57943C41.3078 1.20921 39.3732 0.048683 36.7129 0.048683C35.2617 0.048683 33.9556 0.387005 32.7946 1.11282C31.5854 1.83815 30.8114 2.90229 30.3762 4.25706L23.9427 24.9586L29.7955 25.0078L35.6964 6.57909C35.8415 5.99833 36.1803 5.7082 36.6155 5.7082C36.8574 5.7082 37.0507 5.80458 37.1958 5.95014C37.3408 6.1434 37.4377 6.33715 37.4859 6.57909L43.4351 25.0078H48.951V25.0073ZM5.41758 8.07793V24.9586H0V6.23978C0 3.82137 0.580754 2.12828 1.83815 1.11282C2.80542 0.387005 4.25656 0 6.28797 0C7.93237 0 9.33533 0.483879 10.5927 1.40295C11.8501 2.32203 12.6723 3.57943 13.108 5.12745L16.6388 17.5583L17.2195 19.2514C17.2677 19.5897 17.4615 19.8317 17.6547 20.0244C17.8966 20.2187 18.1381 20.3156 18.4287 20.2187C18.9126 20.1705 19.1545 19.8799 19.1545 19.4447V0.580753H24.7172V19.2027C24.7172 21.2828 24.2338 22.8313 23.2178 23.9437C22.2506 25.056 20.7994 25.6367 18.8644 25.6367C17.1713 25.6367 15.7684 25.2979 14.656 24.7177C13.3018 24.0405 12.4309 22.9764 12.0439 21.573L7.98106 7.4008L7.69093 6.48172C7.59405 6.1434 7.4008 5.90146 7.15886 5.65952C6.91692 5.46577 6.62679 5.41758 6.33666 5.46577C6.04652 5.51445 5.85327 5.65952 5.65952 5.94965C5.50049 6.21206 5.41678 6.5132 5.41758 6.82004V8.07793ZM92 25.0073L85.712 4.06331L85.4701 3.57943C84.3091 1.20921 82.3745 0.048683 79.7142 0.048683C78.263 0.048683 76.957 0.387005 75.7964 1.11282C74.5863 1.83815 73.8132 2.90229 73.377 4.25706L66.944 24.9586L72.7968 25.0078L78.6978 6.57909C78.8428 5.99833 79.1816 5.7082 79.6168 5.7082C79.8588 5.7082 80.052 5.80458 80.1971 5.95014C80.3431 6.1434 80.439 6.33715 80.4882 6.57909L86.4374 25.0078H92V25.0073Z" fill="#67748E" fill-opacity="0.7"/>
</svg>
