<svg width="136" height="25" viewBox="0 0 136 25" fill="none" xmlns="http://www.w3.org/2000/svg">
<path d="M7.1951 24.2629L0 7.05618H4.70931L9.21338 18.4817L13.5692 7.05618H18.0619L11.0606 24.2629H7.1951ZM30.5934 15.574C30.5987 14.8819 30.5143 14.192 30.3426 13.5215C30.1974 12.9281 29.9421 12.3673 29.59 11.8681C29.2727 11.4156 28.8601 11.0381 28.3813 10.7621C27.8705 10.4738 27.2916 10.328 26.7051 10.3402C26.1186 10.3275 25.5395 10.4732 25.0289 10.7621C24.5451 11.0355 24.1283 11.4134 23.8088 11.8681C23.4594 12.3716 23.208 12.9364 23.0677 13.5329C22.8969 14.1997 22.8126 14.8857 22.8168 15.574C22.8111 16.2661 22.8954 16.9561 23.0677 17.6265C23.2112 18.218 23.4541 18.781 23.786 19.2913C24.4272 20.269 25.5247 20.8501 26.6937 20.8306C27.8635 20.8662 28.965 20.2808 29.59 19.2913C29.9372 18.7893 30.1921 18.2294 30.3426 17.6379C30.5158 16.9638 30.6002 16.27 30.5934 15.574ZM34.9379 15.5854C34.938 16.7075 34.765 17.8229 34.4247 18.8922C34.093 19.9471 33.5714 20.9325 32.8854 21.7999C31.3937 23.6761 29.1006 24.7338 26.7051 24.6505C24.3075 24.7283 22.0133 23.6721 20.5135 21.7999C19.829 20.9315 19.3074 19.9464 18.9741 18.8922C18.2965 16.7514 18.2965 14.4536 18.9741 12.3128C19.3077 11.2692 19.8294 10.2953 20.5135 9.43935C21.2095 8.58285 22.0854 7.88992 23.0791 7.40967C24.2111 6.87297 25.4526 6.60749 26.7051 6.63428C29.0838 6.56853 31.3599 7.60351 32.874 9.43935C33.5581 10.2831 34.0827 11.241 34.4247 12.3128C34.7668 13.3847 34.9379 14.4793 34.9379 15.5854ZM48.2334 10.8533C47.478 10.535 46.6697 10.361 45.8503 10.3402C44.5486 10.2772 43.3037 10.8781 42.5435 11.9365C42.1833 12.4371 41.9132 12.9966 41.7453 13.5899C41.5684 14.2013 41.4801 14.8349 41.483 15.4714C41.4791 16.1621 41.5556 16.8509 41.7111 17.5239C41.8482 18.1318 42.0913 18.7108 42.4294 19.2343C42.7373 19.716 43.1506 20.1215 43.6381 20.4201C44.117 20.7166 44.6986 20.8763 45.3485 20.8763C45.9361 20.8632 46.5116 20.7066 47.0247 20.4201C47.5165 20.1884 47.9348 19.8254 48.2334 19.3711V10.8533ZM48.5869 24.2629L48.4159 22.9401C47.9616 23.4337 47.4205 23.8395 46.8195 24.1374C45.0544 24.8925 43.0424 24.8087 41.3462 23.9094C40.4483 23.4154 39.6698 22.7303 39.0656 21.9025C38.4276 21.032 37.9489 20.0552 37.6517 19.0176C37.3314 17.9057 37.1702 16.754 37.1728 15.5968C37.1728 14.4679 37.3324 13.3733 37.6631 12.3014C37.9848 11.2608 38.4992 10.2899 39.1797 9.43935C40.6698 7.59184 42.9422 6.55282 45.3143 6.63428C46.2265 6.63428 47.1958 6.80533 48.2334 7.136V0.465424H52.6577V24.2629H48.5869ZM65.1094 16.1897C64.1339 16.2551 63.1631 16.3769 62.2017 16.5546C61.2439 16.7485 60.5825 17.0678 60.2063 17.5353C59.854 17.9623 59.6606 18.4982 59.6589 19.0518C59.6589 19.622 59.8642 20.0781 60.2861 20.4201C60.7968 20.7941 61.4214 20.9795 62.0535 20.9447C62.6236 20.9447 63.1938 20.8306 63.7297 20.5912C64.2366 20.3699 64.7029 20.0655 65.1094 19.6904V16.1897ZM65.4629 24.2401L65.2919 22.9629C64.7861 23.5105 64.1621 23.9356 63.4674 24.2058C62.0063 24.7841 60.3842 24.8085 58.9063 24.2743C56.728 23.548 55.2796 21.4841 55.3373 19.1887C55.3075 17.662 55.9956 16.2099 57.1959 15.2661C57.7943 14.8006 58.4593 14.4278 59.1686 14.1601C60.5267 13.6784 61.9406 13.3719 63.3762 13.2479L65.0866 13.0882V12.8374C65.0866 11.8909 64.8357 11.2182 64.3454 10.8077C63.7612 10.3734 63.0424 10.1594 62.3158 10.2033C61.0234 10.2098 59.7647 10.6161 58.7125 11.3664C58.4825 11.5125 58.2617 11.6724 58.0511 11.8453L56.5802 8.74378C57.2858 8.20846 58.0606 7.77118 58.8835 7.44388C61.0269 6.55293 63.4058 6.40049 65.6453 7.01057C67.2059 7.49838 68.4523 8.68167 69.0205 10.2147C69.3633 11.1685 69.5257 12.1777 69.4995 13.1908V24.2515L65.4629 24.2401ZM83.1713 4.38795C82.3832 4.0351 81.5259 3.86365 80.6627 3.88623C80.0584 3.88623 79.5338 4.06868 79.1233 4.44497C78.7014 4.80985 78.4962 5.4142 78.4962 6.24659V7.05618H82.2135V10.6252H78.5304V24.2629H74.1061V10.6252H71.8256V7.05618H74.1061V6.14397C74.1061 5.0151 74.2544 4.06868 74.5394 3.29329C75.0113 1.88474 76.1245 0.78426 77.5384 0.328592C79.57 -0.213999 81.7229 -0.0819425 83.673 0.704881L83.1713 4.38795ZM95.2353 15.574C95.2384 14.882 95.1542 14.1924 94.9845 13.5215C94.8393 12.9281 94.584 12.3673 94.2319 11.8681C93.9146 11.4156 93.502 11.0381 93.0232 10.7621C92.5124 10.4738 91.9335 10.328 91.347 10.3402C90.7605 10.3275 90.1814 10.4732 89.6708 10.7621C89.1883 11.0374 88.7719 11.4149 88.4507 11.8681C88.1008 12.3727 87.8457 12.9369 87.6982 13.5329C87.3511 14.8792 87.3511 16.2916 87.6982 17.6379C87.8485 18.2255 88.0951 18.7842 88.4279 19.2913C88.7397 19.7617 89.1576 20.1523 89.648 20.4316C90.1694 20.7127 90.7548 20.8541 91.347 20.842C92.5151 20.8711 93.6118 20.2816 94.2319 19.2913C94.5791 18.7893 94.834 18.2294 94.9845 17.6379C95.1556 16.9634 95.2399 16.2698 95.2353 15.574ZM99.5798 15.5854C99.582 16.7077 99.4088 17.8234 99.0667 18.8922C98.7369 19.9479 98.215 20.9336 97.5273 21.7999C96.0356 23.6761 93.7425 24.7338 91.347 24.6505C88.9494 24.7283 86.6552 23.6721 85.1554 21.7999C84.4709 20.9315 83.9493 19.9464 83.616 18.8922C82.9293 16.7528 82.9293 14.4522 83.616 12.3128C83.9462 11.27 84.464 10.2962 85.144 9.43935C85.8433 8.58153 86.7232 7.88851 87.721 7.40967C88.853 6.87297 90.0945 6.60749 91.347 6.63428C93.7257 6.56853 96.0018 7.60351 97.5159 9.43935C98.2 10.2831 98.7246 11.241 99.0667 12.3128C99.4087 13.3847 99.5798 14.4793 99.5798 15.5854ZM113.32 24.2629V14.4565C113.388 13.3791 113.1 12.3091 112.499 11.412C111.958 10.7052 111.108 10.3054 110.218 10.3402C109.542 10.3324 108.877 10.5183 108.303 10.8761C107.752 11.2092 107.242 11.6074 106.786 12.062V24.2629H102.362V7.05618H106.399L106.604 8.42451C107.996 7.26404 109.752 6.6303 111.564 6.63427C112.476 6.63427 113.309 6.77112 114.073 7.04478C114.818 7.31411 115.487 7.76015 116.022 8.34469C116.581 8.93763 117.003 9.71301 117.3 10.6594C117.596 11.6173 117.744 12.7575 117.744 14.0802V24.2629H113.32ZM131.507 13.5899C131.475 13.0548 131.347 12.5297 131.131 12.0392C130.955 11.635 130.699 11.2704 130.378 10.9673C129.826 10.4559 129.102 10.171 128.349 10.1691C127.54 10.1837 126.764 10.487 126.159 11.0243C125.424 11.6804 124.984 12.6053 124.939 13.5899H131.507ZM124.837 16.7713C124.928 18.2194 125.384 19.2685 126.205 19.907C127.109 20.5791 128.215 20.9211 129.341 20.8763C130.393 20.875 131.436 20.6818 132.42 20.3061C132.78 20.1632 133.131 19.9956 133.469 19.8044C133.699 19.6735 133.913 19.5166 134.107 19.3369L135.293 22.9401C134.622 23.3941 133.888 23.7475 133.115 23.9892C131.703 24.4221 130.236 24.6449 128.759 24.6506C127.672 24.6544 126.593 24.4731 125.567 24.1146C124.57 23.7668 123.662 23.2021 122.91 22.4612C122.113 21.6632 121.492 20.7079 121.085 19.6562C120.603 18.3822 120.37 17.0272 120.401 15.6652C120.401 14.2057 120.618 12.9286 121.028 11.8111C122.076 8.66678 125.047 6.5692 128.36 6.63428C129.399 6.62392 130.432 6.80561 131.405 7.17021C132.328 7.5237 133.127 8.08243 133.799 8.8236C134.483 9.57618 135.019 10.5454 135.407 11.7427C135.806 12.9286 136 14.3425 136 15.9845V16.7713H124.837Z" fill="#707780"/>
</svg>
