<svg width="108" height="30" viewBox="0 0 108 30" fill="none" xmlns="http://www.w3.org/2000/svg">
<path d="M10.3617 11.4579C6.09105 10.4396 5.33201 9.72484 5.33201 8.22301C5.33201 6.80417 6.66697 5.84932 8.65465 5.84932C10.5803 5.84932 12.4882 6.57439 14.4907 8.06707C14.5497 8.11225 14.6265 8.13027 14.7004 8.11846C14.7754 8.10768 14.8427 8.06644 14.8864 8.00445L16.9716 5.06518C17.057 4.94422 17.0338 4.77767 16.9184 4.68477C14.535 2.773 11.8532 1.84355 8.71667 1.84355C4.10633 1.84355 0.88411 4.61064 0.88411 8.56975C0.88411 12.8153 3.66331 14.3186 8.46563 15.4791C12.5503 16.4203 13.2414 17.2089 13.2414 18.6183C13.2414 20.1807 11.8473 21.1523 9.60271 21.1523C7.10999 21.1523 5.07506 20.3106 2.8009 18.3436C2.7442 18.2957 2.67124 18.2713 2.59711 18.2757C2.52032 18.2816 2.45239 18.317 2.40514 18.3731L0.0660034 21.1553C-0.0314606 21.2734 -0.0196468 21.4447 0.0925845 21.5452C2.73888 23.9079 5.99359 25.1543 9.5082 25.1543C14.4759 25.1543 17.6863 22.4401 17.6863 18.2373C17.6952 14.6911 15.5716 12.727 10.3706 11.4618L10.3617 11.4579ZM28.9272 7.2463C26.7741 7.2463 25.0079 8.09453 23.5489 9.83264V7.87627C23.5496 7.72224 23.4253 7.5968 23.2713 7.59599H19.4466C19.293 7.59599 19.1689 7.72181 19.1689 7.87627V29.614C19.1689 29.7676 19.293 29.8946 19.4466 29.8946H23.2713C23.4249 29.8946 23.5489 29.7676 23.5489 29.614V22.7531C25.0079 24.3864 26.7741 25.1868 28.9272 25.1868C32.9291 25.1868 36.9812 22.1063 36.9812 16.2174C36.9871 10.3273 32.935 7.24601 28.9301 7.24601L28.9272 7.2463ZM32.5333 16.2174C32.5333 19.2149 30.6874 21.3089 28.0411 21.3089C25.4273 21.3089 23.4544 19.1204 23.4544 16.2174C23.4544 13.3142 25.4273 11.1263 28.0411 11.1263C30.6431 11.126 32.5333 13.2666 32.5333 16.2171V16.2174ZM47.3626 7.2463C42.2088 7.2463 38.1715 11.2146 38.1715 16.2815C38.1715 21.2941 42.1823 25.2193 47.3006 25.2193C52.4721 25.2193 56.5213 21.2646 56.5213 16.2174C56.5213 11.1874 52.4987 7.24689 47.3626 7.24689V7.2463ZM47.3626 21.3384C44.6218 21.3384 42.5544 19.1351 42.5544 16.2159C42.5544 13.2835 44.5509 11.1555 47.3006 11.1555C50.0591 11.1555 52.1384 13.3579 52.1384 16.28C52.1384 19.2119 50.13 21.3384 47.3626 21.3384ZM67.5259 7.59599H63.3172V3.29399C63.3175 3.22004 63.2884 3.149 63.2364 3.0965C63.1843 3.04399 63.1135 3.01431 63.0396 3.014H59.2148C59.0613 3.014 58.9343 3.13982 58.9343 3.29399V7.59599H57.0972C56.9436 7.59599 56.8196 7.72181 56.8196 7.87627V11.1626C56.8196 11.3168 56.9436 11.4429 57.0972 11.4429H58.9343V19.9473C58.9343 23.3822 60.6443 25.1247 64.0201 25.1247C65.3905 25.1247 66.5276 24.8412 67.5997 24.2328C67.6883 24.1855 67.7415 24.091 67.7415 23.9906V20.86C67.7415 20.7654 67.6913 20.6739 67.6086 20.6237C67.5266 20.5713 67.423 20.5668 67.3368 20.6119C66.6014 20.981 65.8896 21.1523 65.0922 21.1523C63.8665 21.1523 63.3172 20.5941 63.3172 19.3478V11.4443H67.5259C67.6794 11.4443 67.8035 11.3185 67.8035 11.1641V7.87805C67.806 7.80395 67.7781 7.73205 67.7262 7.6791C67.6743 7.62614 67.603 7.59675 67.5288 7.59776L67.5259 7.59599ZM82.1868 7.61282V7.08445C82.1868 5.53005 82.7834 4.83687 84.1184 4.83687C84.9158 4.83687 85.5567 4.99518 86.2744 5.23441C86.363 5.26217 86.4546 5.24829 86.5254 5.19542C86.5984 5.14277 86.6414 5.058 86.6406 4.96801V1.74579C86.6421 1.62214 86.5613 1.51255 86.4427 1.47732C85.6867 1.25197 84.7179 1.02071 83.2648 1.02071C79.7354 1.02071 77.8659 3.00957 77.8659 6.7702V7.57945H76.0289C75.8753 7.57945 75.7483 7.70527 75.7483 7.85944V11.1626C75.7483 11.3168 75.8753 11.4429 76.0289 11.4429H77.8659V24.5577C77.8659 24.7142 77.9929 24.8383 78.1465 24.8383H81.9683C82.1248 24.8383 82.2488 24.7142 82.2488 24.5577V11.4438H85.8196L91.2894 24.5577C90.6691 25.934 90.0578 26.2087 89.2249 26.2087C88.5515 26.2087 87.8397 26.0078 87.1161 25.6091C87.0475 25.5745 86.9684 25.5671 86.8946 25.5884C86.8208 25.615 86.7588 25.6682 86.7292 25.7391L85.4327 28.5832C85.3706 28.7191 85.4238 28.8756 85.5537 28.9465C86.9064 29.679 88.1262 29.992 89.6354 29.992C92.4589 29.992 94.0213 28.6748 95.3947 25.1366L102.028 7.99559C102.063 7.90948 102.052 7.81145 101.999 7.73539C101.948 7.65931 101.863 7.61363 101.771 7.61371H97.7899C97.6688 7.61371 97.5625 7.68961 97.5241 7.80155L93.4454 19.4482L88.9798 7.79387C88.9389 7.68574 88.8355 7.61407 88.7199 7.61371H82.1868V7.61282ZM73.6868 7.59599H69.862C69.7085 7.59599 69.5815 7.72181 69.5815 7.87627V24.5577C69.5815 24.7142 69.7085 24.8383 69.862 24.8383H73.6868C73.8403 24.8383 73.9673 24.7142 73.9673 24.5577V7.87745C73.9675 7.80302 73.938 7.73159 73.8853 7.67899C73.8327 7.62638 73.7612 7.59694 73.6868 7.59717V7.59599ZM71.7966 0C70.2814 0 69.0528 1.22627 69.0528 2.7411C69.0528 4.25681 70.2814 5.48457 71.7966 5.48457C73.3117 5.48457 74.5374 4.25681 74.5374 2.7411C74.5374 1.22657 73.3087 0 71.7966 0ZM105.295 12.9598C103.782 12.9598 102.604 11.7444 102.604 10.2686C102.604 8.79273 103.797 7.5635 105.309 7.5635C106.822 7.5635 108 8.77855 108 10.2532C108 11.7291 106.807 12.9598 105.295 12.9598ZM105.309 7.83109C103.93 7.83109 102.888 8.92682 102.888 10.2686C102.888 11.6097 103.924 12.6907 105.295 12.6907C106.674 12.6907 107.716 11.5959 107.716 10.2532C107.716 8.91205 106.68 7.83109 105.309 7.83109ZM105.906 10.53L106.668 11.5956H106.024L105.339 10.618H104.751V11.5956H104.214V8.77087H105.472C106.13 8.77087 106.562 9.10668 106.562 9.67197C106.565 10.1351 106.296 10.418 105.909 10.53H105.906ZM105.451 9.25554H104.751V10.149H105.451C105.8 10.149 106.009 9.97795 106.009 9.7018C106.009 9.41118 105.8 9.25554 105.451 9.25554Z" fill="#67748E" fill-opacity="0.7"/>
</svg>
