<svg width="99" height="27" viewBox="0 0 99 27" fill="none" xmlns="http://www.w3.org/2000/svg">
<path d="M13.6128 25.0736C12.1235 25.3355 10.6081 25.4141 9.04042 25.6233L4.25884 11.5947V26.2254C2.76958 26.3823 1.41094 26.5917 0 26.8011V0H3.9716L9.40616 15.2067V0H13.6128V25.0736ZM21.8432 9.81486C23.4633 9.81486 25.9454 9.73632 27.4347 9.73632V13.9239C25.5795 13.9239 23.411 13.9239 21.8432 14.0024V20.2317C24.2994 20.0747 26.7554 19.8652 29.2375 19.7866V23.817L17.6626 24.7333V0H29.2375V4.18768H21.8432V9.81486ZM44.7838 4.18778H40.4465V23.451C39.0356 23.451 37.6246 23.451 36.2662 23.5032V4.18778H31.9289V0H44.784L44.7838 4.18778ZM51.5771 9.52704H57.2992V13.7146H51.5771V23.2155H47.4747V0H59.1543V4.18768H51.5771V9.52704ZM65.9476 19.5512C68.3254 19.6034 70.729 19.7869 73.0546 19.9175V24.0529C69.3183 23.8172 65.5819 23.582 61.7672 23.5032V0H65.9476V19.5512ZM76.5818 24.3408C77.9144 24.4195 79.3253 24.498 80.6839 24.6548V0H76.5818V24.3408ZM99 0L93.6959 12.7463L99 26.8011C97.4321 26.5917 95.8645 26.3038 94.2967 26.042L91.2921 18.295L88.2354 25.4141C86.7197 25.1521 85.2565 25.0736 83.7413 24.8642L89.1237 12.5891L84.2637 0H88.7576L91.501 7.04054L94.4275 0H99Z" fill="#67748E" fill-opacity="0.7"/>
</svg>
