<svg width="18" height="18" viewBox="0 0 18 18" fill="none" xmlns="http://www.w3.org/2000/svg">
<path d="M15.1875 1.375H2.8125C1.86328 1.375 1.125 2.14844 1.125 3.0625V15.4375C1.125 16.3867 1.86328 17.125 2.8125 17.125H7.62891V11.7812H5.41406V9.25H7.62891V7.35156C7.62891 5.17188 8.92969 3.94141 10.8984 3.94141C11.8828 3.94141 12.8672 4.11719 12.8672 4.11719V6.26172H11.7773C10.6875 6.26172 10.3359 6.92969 10.3359 7.63281V9.25H12.7617L12.375 11.7812H10.3359V17.125H15.1875C16.1016 17.125 16.875 16.3867 16.875 15.4375V3.0625C16.875 2.14844 16.1016 1.375 15.1875 1.375Z" fill="white"/>
</svg>
